<svg width="1280" height="360" viewBox="0 0 1280 360" fill="none" xmlns="http://www.w3.org/2000/svg">
  <title>Voxiva Voice hero banner</title>
  <rect width="1280" height="360" rx="36" fill="#0B1020"/>
  <circle cx="1040" cy="42" r="230" fill="#2D5BFF" opacity="0.20"/>
  <circle cx="112" cy="314" r="180" fill="#5B8CFF" opacity="0.10"/>
  <path d="M0 300C195 252 350 260 528 305C745 360 933 330 1280 230V360H0V300Z" fill="#2D5BFF" opacity="0.18"/>
  <g transform="translate(128 96) scale(0.515625)">
  <title>Voxiva mark variation A - primary</title>
  <defs>
    <filter id="hero-mark-shadow" x="-20%" y="-20%" width="140%" height="140%" color-interpolation-filters="sRGB">
      <feDropShadow dx="0" dy="12" stdDeviation="14" flood-color="#050816" flood-opacity="0.28"/>
    </filter>
    <linearGradient id="hero-mark-blue" x1="48" y1="26" x2="210" y2="228" gradientUnits="userSpaceOnUse">
      <stop stop-color="#5B8CFF"/>
      <stop offset="1" stop-color="#2D5BFF"/>
    </linearGradient>
    <linearGradient id="hero-mark-gold" x1="76" y1="92" x2="180" y2="168" gradientUnits="userSpaceOnUse">
      <stop stop-color="#FFE08A"/>
      <stop offset="1" stop-color="#F0C14B"/>
    </linearGradient>
  </defs>
  <path d="M128 20C164 20 202 37 222 68C242 99 239 151 219 186C199 221 164 236 128 236C92 236 57 221 37 186C17 151 14 99 34 68C54 37 92 20 128 20Z" fill="#0B1020" stroke="url(#hero-mark-blue)" stroke-width="14" opacity="0.96" filter="url(#hero-mark-shadow)"/>
  <path d="M128 20C164 20 202 37 222 68C242 99 239 151 219 186C199 221 164 236 128 236C92 236 57 221 37 186C17 151 14 99 34 68C54 37 92 20 128 20Z" fill="none" stroke="#2D5BFF" stroke-width="5" opacity="0.34"/>
  <path d="M70 94C88 137 104 164 128 164C152 164 168 137 186 94" fill="none" stroke="url(#hero-mark-gold)" stroke-width="22" stroke-linecap="round" stroke-linejoin="round"/>
  <path d="M70 94C88 137 104 164 128 164C152 164 168 137 186 94" fill="none" stroke="#FFE08A" stroke-width="6" stroke-linecap="round" stroke-linejoin="round" opacity="0.55"/></g>
  <text x="300" y="154" font-family="Nunito Sans, Avenir Next, Segoe UI, Inter, Arial, sans-serif" font-weight="760" fill="#FFFFFF" letter-spacing="-1.8" font-size="74">Voxiva Voice</text>
  <text x="304" y="215" font-family="Nunito Sans, Avenir Next, Segoe UI, Inter, Arial, sans-serif" font-weight="560" fill="#C8D4FF" font-size="30" letter-spacing="-0.2">Stop typing. Just speak.</text>
  <rect x="302" y="244" width="146" height="7" rx="3.5" fill="#F0C14B"/>
</svg>
